<?xml version="1.0" standalone="no"?>
<!DOCTYPE svg PUBLIC "-//W3C//DTD SVG 20010904//EN"
 "http://www.w3.org/TR/2001/REC-SVG-20010904/DTD/svg10.dtd">
<svg version="1.0" xmlns="http://www.w3.org/2000/svg"
 width="505.000000pt" height="505.000000pt" viewBox="0 0 505.000000 505.000000"
 preserveAspectRatio="xMidYMid meet">
<metadata>
Created by potrace 1.14, written by Peter Selinger 2001-2017
</metadata>
<g transform="translate(0.000000,505.000000) scale(0.100000,-0.100000)"
fill="#000000" stroke="none">
<path d="M2167 4304 c-1 -2 -32 -6 -67 -9 -98 -10 -125 -13 -125 -15 0 -3 -38
-10 -78 -15 -21 -2 -42 -7 -48 -10 -5 -4 -22 -8 -37 -10 -15 -3 -52 -12 -82
-20 -30 -9 -61 -17 -67 -17 -7 -1 -13 -5 -13 -10 0 -4 -9 -8 -21 -8 -11 0 -41
-9 -67 -20 -26 -10 -54 -21 -62 -22 -8 -2 -17 -5 -20 -8 -7 -8 -83 -41 -95
-41 -5 -1 -22 -10 -37 -20 -14 -10 -29 -19 -33 -19 -4 0 -20 -9 -36 -21 -16
-11 -29 -17 -29 -13 0 4 -8 0 -17 -8 -10 -8 -42 -28 -70 -44 -29 -16 -53 -32
-53 -36 0 -5 -4 -8 -9 -8 -5 0 -33 -16 -62 -35 -30 -19 -50 -35 -45 -35 4 0
-18 -18 -50 -39 -33 -22 -81 -60 -108 -85 -27 -25 -50 -46 -51 -46 -4 0 -116
-113 -160 -161 -34 -37 -77 -89 -132 -159 -34 -43 -88 -124 -135 -205 -106
-179 -230 -467 -209 -488 8 -8 11 -8 11 1 0 7 23 34 52 60 29 26 62 57 75 69
13 12 23 19 23 16 0 -4 15 6 32 23 43 38 123 94 137 94 6 0 11 4 11 9 0 5 10
13 22 16 11 4 42 20 67 34 25 15 49 28 54 29 4 1 20 8 36 16 16 9 31 12 35 9
3 -4 6 -1 6 5 0 7 8 12 18 12 10 0 23 5 30 12 7 7 12 9 12 5 0 -4 14 -1 30 8
17 9 30 13 30 9 0 -4 6 -1 14 5 8 6 28 13 45 14 17 1 31 6 31 11 0 5 3 7 6 4
3 -4 20 -2 37 3 18 5 47 12 66 15 18 3 43 8 55 10 11 3 50 7 86 10 35 3 68 8
72 10 21 13 4 -21 -27 -54 -56 -59 -98 -121 -143 -209 -23 -46 -39 -83 -37
-83 2 0 -3 -19 -11 -42 -21 -59 -26 -107 -27 -223 0 -84 7 -170 13 -170 1 0 3
-11 6 -25 2 -14 7 -32 11 -40 3 -8 5 -21 4 -27 -1 -7 3 -13 9 -13 6 0 9 -4 5
-9 -3 -5 -1 -12 5 -16 11 -7 43 19 34 28 -3 3 4 8 15 12 11 3 23 15 26 26 4
10 10 19 14 19 4 0 21 11 37 25 64 56 188 121 141 74 -18 -19 -88 -139 -80
-139 3 0 1 -6 -5 -12 -14 -18 -50 -143 -58 -203 -17 -133 -4 -276 37 -385 23
-63 80 -173 91 -178 5 -2 8 -8 8 -13 0 -5 12 -22 26 -39 l27 -29 40 77 c22 42
44 79 48 80 5 2 9 8 9 14 0 12 101 131 106 125 2 -2 -1 -30 -7 -63 -13 -66
-15 -208 -4 -269 4 -22 8 -47 9 -55 1 -9 5 -20 8 -25 3 -6 9 -26 13 -45 4 -19
11 -39 14 -45 4 -5 14 -26 21 -45 16 -43 91 -160 102 -160 4 0 8 -6 8 -12 0
-17 92 -105 155 -148 28 -19 52 -38 53 -42 2 -5 12 -8 23 -8 10 0 19 -3 19 -8
0 -10 75 -41 95 -38 5 0 11 26 11 56 3 77 13 231 18 255 2 11 7 42 10 68 4 27
9 59 12 70 2 12 7 35 10 51 2 16 6 32 8 35 2 3 7 23 10 43 7 43 61 219 82 265
8 17 14 35 14 40 0 6 6 23 14 39 8 16 31 65 52 109 20 44 53 107 73 140 20 33
42 73 50 88 8 15 18 27 23 27 4 0 8 7 8 15 0 8 5 15 11 15 5 0 8 4 5 9 -4 5
-3 11 1 13 5 1 28 30 52 63 24 33 49 65 55 70 6 6 23 26 37 45 15 20 63 73
108 118 67 69 82 80 88 65 19 -54 114 -170 199 -243 60 -52 216 -136 272 -146
14 -3 29 -7 34 -10 50 -31 343 -33 400 -3 10 5 18 7 18 4 0 -2 24 5 53 16 28
12 57 22 62 23 38 7 191 113 252 175 55 56 162 201 148 201 -3 0 1 10 9 23 29
44 76 213 76 273 0 29 6 34 84 73 47 22 87 41 90 41 2 0 17 5 33 12 34 14 31
13 68 23 17 4 35 10 40 14 6 3 15 6 20 7 6 1 37 9 69 17 33 9 63 14 67 11 4
-2 10 0 14 6 4 6 10 8 15 5 5 -3 11 -1 15 4 6 10 -164 96 -173 87 -2 -3 -12
-1 -22 4 -9 5 -30 12 -46 15 -16 3 -42 9 -59 12 -16 4 -76 6 -132 6 -83 0 -99
3 -85 12 18 13 195 107 199 106 2 0 24 9 50 20 27 11 60 23 76 26 15 3 27 9
27 14 0 4 9 6 21 4 12 -3 19 0 17 7 -4 11 -33 22 -88 32 -14 3 -38 8 -55 11
-73 16 -180 25 -315 26 -63 0 -117 4 -120 9 -34 53 -246 273 -335 345 -27 22
-54 46 -62 53 -7 7 -13 11 -13 7 0 -3 -10 4 -22 15 -13 12 -39 31 -58 43 -19
11 -37 23 -40 26 -15 18 -71 51 -85 51 -8 0 -15 4 -15 10 0 5 -17 17 -37 27
-21 9 -40 19 -43 22 -6 7 -102 54 -195 97 -72 32 -210 84 -245 90 -14 3 -29 9
-34 15 -6 5 -20 9 -33 9 -12 0 -32 4 -45 9 -47 19 -63 24 -71 23 -4 -1 -26 2
-50 7 -67 15 -119 23 -162 27 -22 1 -40 4 -40 5 0 7 -401 20 -408 13z"/>
</g>
</svg>
